<mxfile host="Electron" modified="2023-06-11T16:19:06.288Z" agent="Mozilla/5.0 (Windows NT 10.0; Win64; x64) AppleWebKit/537.36 (KHTML, like Gecko) draw.io/21.2.8 Chrome/112.0.5615.165 Electron/24.2.0 Safari/537.36" etag="EwhNIZMBxgyhFHgdvBGV" version="21.2.8" type="device">
  <diagram name="Page-1" id="CMUjXPx6QFih1rum0K76">
    <mxGraphModel dx="1235" dy="731" grid="1" gridSize="10" guides="1" tooltips="1" connect="1" arrows="1" fold="1" page="1" pageScale="1" pageWidth="827" pageHeight="1169" math="0" shadow="0">
      <root>
        <mxCell id="0" />
        <mxCell id="1" parent="0" />
        <mxCell id="ZY_zcs3au3pnWTy_b17c-16" value="" style="rounded=0;whiteSpace=wrap;html=1;movable=0;resizable=0;rotatable=0;deletable=0;editable=0;locked=1;connectable=0;" vertex="1" parent="1">
          <mxGeometry x="250" y="130" width="600" height="470" as="geometry" />
        </mxCell>
        <mxCell id="ZY_zcs3au3pnWTy_b17c-8" style="edgeStyle=orthogonalEdgeStyle;rounded=0;orthogonalLoop=1;jettySize=auto;html=1;entryX=0.25;entryY=0.1;entryDx=0;entryDy=0;entryPerimeter=0;endArrow=classic;endFill=1;startArrow=none;startFill=0;exitX=1;exitY=0.3333333333333333;exitDx=0;exitDy=0;exitPerimeter=0;" edge="1" parent="1" source="ZY_zcs3au3pnWTy_b17c-1" target="ZY_zcs3au3pnWTy_b17c-7">
          <mxGeometry relative="1" as="geometry">
            <Array as="points">
              <mxPoint x="170" y="180" />
              <mxPoint x="170" y="346" />
            </Array>
          </mxGeometry>
        </mxCell>
        <mxCell id="ZY_zcs3au3pnWTy_b17c-9" value="&amp;lt;&amp;lt; Extends &amp;gt;&amp;gt;" style="edgeLabel;html=1;align=center;verticalAlign=middle;resizable=0;points=[];" vertex="1" connectable="0" parent="ZY_zcs3au3pnWTy_b17c-8">
          <mxGeometry x="-0.1099" y="-2" relative="1" as="geometry">
            <mxPoint x="4" y="-45" as="offset" />
          </mxGeometry>
        </mxCell>
        <mxCell id="ZY_zcs3au3pnWTy_b17c-1" value="Joueur 1&lt;br&gt;" style="shape=umlActor;verticalLabelPosition=bottom;verticalAlign=top;html=1;" vertex="1" parent="1">
          <mxGeometry x="40" y="160" width="30" height="60" as="geometry" />
        </mxCell>
        <mxCell id="ZY_zcs3au3pnWTy_b17c-2" value="Joueur 2" style="shape=umlActor;verticalLabelPosition=bottom;verticalAlign=top;html=1;" vertex="1" parent="1">
          <mxGeometry x="40" y="280" width="30" height="60" as="geometry" />
        </mxCell>
        <mxCell id="ZY_zcs3au3pnWTy_b17c-3" value="Joueur 3" style="shape=umlActor;verticalLabelPosition=bottom;verticalAlign=top;html=1;" vertex="1" parent="1">
          <mxGeometry x="40" y="400" width="30" height="60" as="geometry" />
        </mxCell>
        <mxCell id="ZY_zcs3au3pnWTy_b17c-4" value="Joueur 4" style="shape=umlActor;verticalLabelPosition=bottom;verticalAlign=top;html=1;" vertex="1" parent="1">
          <mxGeometry x="40" y="519.5" width="30" height="60" as="geometry" />
        </mxCell>
        <mxCell id="ZY_zcs3au3pnWTy_b17c-34" style="edgeStyle=orthogonalEdgeStyle;rounded=0;orthogonalLoop=1;jettySize=auto;html=1;exitX=1;exitY=0.3333333333333333;exitDx=0;exitDy=0;exitPerimeter=0;entryX=0;entryY=0.5;entryDx=0;entryDy=0;startArrow=classic;startFill=1;" edge="1" parent="1" source="ZY_zcs3au3pnWTy_b17c-7" target="ZY_zcs3au3pnWTy_b17c-18">
          <mxGeometry relative="1" as="geometry" />
        </mxCell>
        <mxCell id="ZY_zcs3au3pnWTy_b17c-35" style="edgeStyle=orthogonalEdgeStyle;rounded=0;orthogonalLoop=1;jettySize=auto;html=1;entryX=0;entryY=0.5;entryDx=0;entryDy=0;startArrow=classic;startFill=1;" edge="1" parent="1" source="ZY_zcs3au3pnWTy_b17c-7" target="ZY_zcs3au3pnWTy_b17c-19">
          <mxGeometry relative="1" as="geometry">
            <Array as="points">
              <mxPoint x="215" y="290" />
            </Array>
          </mxGeometry>
        </mxCell>
        <mxCell id="ZY_zcs3au3pnWTy_b17c-36" style="edgeStyle=orthogonalEdgeStyle;rounded=0;orthogonalLoop=1;jettySize=auto;html=1;entryX=0;entryY=0.5;entryDx=0;entryDy=0;startArrow=classic;startFill=1;" edge="1" parent="1" source="ZY_zcs3au3pnWTy_b17c-7" target="ZY_zcs3au3pnWTy_b17c-17">
          <mxGeometry relative="1" as="geometry">
            <Array as="points">
              <mxPoint x="215" y="480" />
            </Array>
          </mxGeometry>
        </mxCell>
        <mxCell id="ZY_zcs3au3pnWTy_b17c-38" style="edgeStyle=orthogonalEdgeStyle;rounded=0;orthogonalLoop=1;jettySize=auto;html=1;exitX=1;exitY=1;exitDx=0;exitDy=0;exitPerimeter=0;entryX=0;entryY=0.5;entryDx=0;entryDy=0;startArrow=classic;startFill=1;" edge="1" parent="1" source="ZY_zcs3au3pnWTy_b17c-7" target="ZY_zcs3au3pnWTy_b17c-37">
          <mxGeometry relative="1" as="geometry" />
        </mxCell>
        <mxCell id="ZY_zcs3au3pnWTy_b17c-47" style="edgeStyle=orthogonalEdgeStyle;rounded=0;orthogonalLoop=1;jettySize=auto;html=1;entryX=0;entryY=1;entryDx=0;entryDy=0;startArrow=classic;startFill=1;" edge="1" parent="1" source="ZY_zcs3au3pnWTy_b17c-7" target="ZY_zcs3au3pnWTy_b17c-43">
          <mxGeometry relative="1" as="geometry">
            <Array as="points">
              <mxPoint x="200" y="590" />
              <mxPoint x="754" y="590" />
            </Array>
          </mxGeometry>
        </mxCell>
        <mxCell id="ZY_zcs3au3pnWTy_b17c-7" value="Joueur" style="shape=umlActor;verticalLabelPosition=bottom;verticalAlign=top;html=1;" vertex="1" parent="1">
          <mxGeometry x="200" y="340" width="30" height="60" as="geometry" />
        </mxCell>
        <mxCell id="ZY_zcs3au3pnWTy_b17c-10" style="edgeStyle=orthogonalEdgeStyle;rounded=0;orthogonalLoop=1;jettySize=auto;html=1;endArrow=classic;endFill=1;startArrow=none;startFill=0;exitX=1;exitY=0.3333333333333333;exitDx=0;exitDy=0;exitPerimeter=0;entryX=0;entryY=0.3333333333333333;entryDx=0;entryDy=0;entryPerimeter=0;" edge="1" parent="1" source="ZY_zcs3au3pnWTy_b17c-2" target="ZY_zcs3au3pnWTy_b17c-7">
          <mxGeometry relative="1" as="geometry">
            <mxPoint x="100" y="300" as="sourcePoint" />
            <mxPoint x="140" y="360" as="targetPoint" />
            <Array as="points">
              <mxPoint x="120" y="300" />
              <mxPoint x="120" y="360" />
            </Array>
          </mxGeometry>
        </mxCell>
        <mxCell id="ZY_zcs3au3pnWTy_b17c-11" value="&amp;lt;&amp;lt; Extends &amp;gt;&amp;gt;" style="edgeLabel;html=1;align=center;verticalAlign=middle;resizable=0;points=[];" vertex="1" connectable="0" parent="ZY_zcs3au3pnWTy_b17c-10">
          <mxGeometry x="-0.1099" y="-2" relative="1" as="geometry">
            <mxPoint x="2" y="-45" as="offset" />
          </mxGeometry>
        </mxCell>
        <mxCell id="ZY_zcs3au3pnWTy_b17c-12" style="edgeStyle=orthogonalEdgeStyle;rounded=0;orthogonalLoop=1;jettySize=auto;html=1;endArrow=classic;endFill=1;startArrow=none;startFill=0;exitX=1;exitY=0.3333333333333333;exitDx=0;exitDy=0;exitPerimeter=0;entryX=0.5;entryY=0.5;entryDx=0;entryDy=0;entryPerimeter=0;" edge="1" parent="1" source="ZY_zcs3au3pnWTy_b17c-3" target="ZY_zcs3au3pnWTy_b17c-7">
          <mxGeometry relative="1" as="geometry">
            <mxPoint x="100" y="470" as="sourcePoint" />
            <mxPoint x="170" y="400" as="targetPoint" />
            <Array as="points">
              <mxPoint x="70" y="410" />
              <mxPoint x="150" y="410" />
              <mxPoint x="150" y="370" />
            </Array>
          </mxGeometry>
        </mxCell>
        <mxCell id="ZY_zcs3au3pnWTy_b17c-13" value="&amp;lt;&amp;lt; Extends &amp;gt;&amp;gt;" style="edgeLabel;html=1;align=center;verticalAlign=middle;resizable=0;points=[];" vertex="1" connectable="0" parent="ZY_zcs3au3pnWTy_b17c-12">
          <mxGeometry x="-0.1099" y="-2" relative="1" as="geometry">
            <mxPoint x="-42" y="-3" as="offset" />
          </mxGeometry>
        </mxCell>
        <mxCell id="ZY_zcs3au3pnWTy_b17c-14" style="edgeStyle=orthogonalEdgeStyle;rounded=0;orthogonalLoop=1;jettySize=auto;html=1;endArrow=classic;endFill=1;startArrow=none;startFill=0;exitX=1;exitY=0.3333333333333333;exitDx=0;exitDy=0;exitPerimeter=0;entryX=0;entryY=1;entryDx=0;entryDy=0;entryPerimeter=0;" edge="1" parent="1" source="ZY_zcs3au3pnWTy_b17c-4" target="ZY_zcs3au3pnWTy_b17c-7">
          <mxGeometry relative="1" as="geometry">
            <mxPoint x="80" y="550" as="sourcePoint" />
            <mxPoint x="210" y="530" as="targetPoint" />
            <Array as="points">
              <mxPoint x="170" y="540" />
              <mxPoint x="170" y="400" />
            </Array>
          </mxGeometry>
        </mxCell>
        <mxCell id="ZY_zcs3au3pnWTy_b17c-15" value="&amp;lt;&amp;lt; Extends &amp;gt;&amp;gt;" style="edgeLabel;html=1;align=center;verticalAlign=middle;resizable=0;points=[];" vertex="1" connectable="0" parent="ZY_zcs3au3pnWTy_b17c-14">
          <mxGeometry x="-0.1099" y="-2" relative="1" as="geometry">
            <mxPoint x="-57" y="11" as="offset" />
          </mxGeometry>
        </mxCell>
        <mxCell id="ZY_zcs3au3pnWTy_b17c-17" value="S&#39;inscrire" style="ellipse;whiteSpace=wrap;html=1;" vertex="1" parent="1">
          <mxGeometry x="290" y="470" width="100" height="20" as="geometry" />
        </mxCell>
        <mxCell id="ZY_zcs3au3pnWTy_b17c-18" value="Donner un temps&lt;br&gt;maximum" style="ellipse;whiteSpace=wrap;html=1;" vertex="1" parent="1">
          <mxGeometry x="290" y="350" width="100" height="70" as="geometry" />
        </mxCell>
        <mxCell id="ZY_zcs3au3pnWTy_b17c-19" value="Annoncer un nombre de coups" style="ellipse;whiteSpace=wrap;html=1;" vertex="1" parent="1">
          <mxGeometry x="290" y="260" width="100" height="60" as="geometry" />
        </mxCell>
        <mxCell id="ZY_zcs3au3pnWTy_b17c-32" style="edgeStyle=orthogonalEdgeStyle;rounded=0;orthogonalLoop=1;jettySize=auto;html=1;exitX=0;exitY=0.3333333333333333;exitDx=0;exitDy=0;exitPerimeter=0;startArrow=classic;startFill=1;" edge="1" parent="1" source="ZY_zcs3au3pnWTy_b17c-20" target="ZY_zcs3au3pnWTy_b17c-21">
          <mxGeometry relative="1" as="geometry">
            <Array as="points">
              <mxPoint x="490" y="60" />
            </Array>
          </mxGeometry>
        </mxCell>
        <mxCell id="ZY_zcs3au3pnWTy_b17c-33" style="edgeStyle=orthogonalEdgeStyle;rounded=0;orthogonalLoop=1;jettySize=auto;html=1;exitX=1;exitY=0.3333333333333333;exitDx=0;exitDy=0;exitPerimeter=0;entryX=0;entryY=0;entryDx=0;entryDy=0;startArrow=classic;startFill=1;" edge="1" parent="1" source="ZY_zcs3au3pnWTy_b17c-20" target="ZY_zcs3au3pnWTy_b17c-22">
          <mxGeometry relative="1" as="geometry">
            <Array as="points">
              <mxPoint x="645" y="60" />
            </Array>
          </mxGeometry>
        </mxCell>
        <mxCell id="ZY_zcs3au3pnWTy_b17c-39" style="edgeStyle=orthogonalEdgeStyle;rounded=0;orthogonalLoop=1;jettySize=auto;html=1;exitX=0.535;exitY=0.675;exitDx=0;exitDy=0;exitPerimeter=0;entryX=0;entryY=0;entryDx=0;entryDy=0;startArrow=classic;startFill=1;" edge="1" parent="1" source="ZY_zcs3au3pnWTy_b17c-20" target="ZY_zcs3au3pnWTy_b17c-37">
          <mxGeometry relative="1" as="geometry">
            <Array as="points">
              <mxPoint x="556" y="100" />
              <mxPoint x="555" y="295" />
              <mxPoint x="665" y="295" />
            </Array>
          </mxGeometry>
        </mxCell>
        <mxCell id="ZY_zcs3au3pnWTy_b17c-44" style="edgeStyle=orthogonalEdgeStyle;rounded=0;orthogonalLoop=1;jettySize=auto;html=1;exitX=0.75;exitY=0.1;exitDx=0;exitDy=0;exitPerimeter=0;entryX=1;entryY=0;entryDx=0;entryDy=0;startArrow=classic;startFill=1;" edge="1" parent="1" source="ZY_zcs3au3pnWTy_b17c-20" target="ZY_zcs3au3pnWTy_b17c-43">
          <mxGeometry relative="1" as="geometry">
            <Array as="points">
              <mxPoint x="825" y="46" />
            </Array>
          </mxGeometry>
        </mxCell>
        <mxCell id="ZY_zcs3au3pnWTy_b17c-20" value="Maitre du Jeu" style="shape=umlActor;verticalLabelPosition=bottom;verticalAlign=top;html=1;" vertex="1" parent="1">
          <mxGeometry x="540" y="40" width="30" height="60" as="geometry" />
        </mxCell>
        <mxCell id="ZY_zcs3au3pnWTy_b17c-24" style="edgeStyle=orthogonalEdgeStyle;rounded=0;orthogonalLoop=1;jettySize=auto;html=1;entryX=0.5;entryY=0;entryDx=0;entryDy=0;startArrow=none;startFill=0;" edge="1" parent="1" source="ZY_zcs3au3pnWTy_b17c-21" target="ZY_zcs3au3pnWTy_b17c-19">
          <mxGeometry relative="1" as="geometry" />
        </mxCell>
        <mxCell id="ZY_zcs3au3pnWTy_b17c-25" value="&amp;lt;&amp;lt; Uses &amp;gt;&amp;gt;" style="edgeLabel;html=1;align=center;verticalAlign=middle;resizable=0;points=[];" vertex="1" connectable="0" parent="ZY_zcs3au3pnWTy_b17c-24">
          <mxGeometry x="-0.075" y="-3" relative="1" as="geometry">
            <mxPoint y="-7" as="offset" />
          </mxGeometry>
        </mxCell>
        <mxCell id="ZY_zcs3au3pnWTy_b17c-28" style="edgeStyle=orthogonalEdgeStyle;rounded=0;orthogonalLoop=1;jettySize=auto;html=1;entryX=1;entryY=0;entryDx=0;entryDy=0;startArrow=none;startFill=0;" edge="1" parent="1" source="ZY_zcs3au3pnWTy_b17c-21" target="ZY_zcs3au3pnWTy_b17c-17">
          <mxGeometry relative="1" as="geometry">
            <Array as="points">
              <mxPoint x="470" y="473" />
            </Array>
          </mxGeometry>
        </mxCell>
        <mxCell id="ZY_zcs3au3pnWTy_b17c-29" value="&amp;lt;&amp;lt; Uses &amp;gt;&amp;gt;" style="edgeLabel;html=1;align=center;verticalAlign=middle;resizable=0;points=[];" vertex="1" connectable="0" parent="ZY_zcs3au3pnWTy_b17c-28">
          <mxGeometry x="-0.6308" y="-1" relative="1" as="geometry">
            <mxPoint x="-39" y="162" as="offset" />
          </mxGeometry>
        </mxCell>
        <mxCell id="ZY_zcs3au3pnWTy_b17c-30" style="edgeStyle=orthogonalEdgeStyle;rounded=0;orthogonalLoop=1;jettySize=auto;html=1;startArrow=none;startFill=0;" edge="1" parent="1" source="ZY_zcs3au3pnWTy_b17c-21" target="ZY_zcs3au3pnWTy_b17c-22">
          <mxGeometry relative="1" as="geometry" />
        </mxCell>
        <mxCell id="ZY_zcs3au3pnWTy_b17c-31" value="&amp;lt;&amp;lt; Uses &amp;gt;&amp;gt;" style="edgeLabel;html=1;align=center;verticalAlign=middle;resizable=0;points=[];" vertex="1" connectable="0" parent="ZY_zcs3au3pnWTy_b17c-30">
          <mxGeometry x="0.32" relative="1" as="geometry">
            <mxPoint y="-20" as="offset" />
          </mxGeometry>
        </mxCell>
        <mxCell id="ZY_zcs3au3pnWTy_b17c-21" value="Récupérer les informations par joueur" style="ellipse;whiteSpace=wrap;html=1;" vertex="1" parent="1">
          <mxGeometry x="440" y="160" width="100" height="80" as="geometry" />
        </mxCell>
        <mxCell id="ZY_zcs3au3pnWTy_b17c-40" style="edgeStyle=orthogonalEdgeStyle;rounded=0;orthogonalLoop=1;jettySize=auto;html=1;" edge="1" parent="1" source="ZY_zcs3au3pnWTy_b17c-22" target="ZY_zcs3au3pnWTy_b17c-37">
          <mxGeometry relative="1" as="geometry" />
        </mxCell>
        <mxCell id="ZY_zcs3au3pnWTy_b17c-41" value="&amp;lt;&amp;lt; Uses &amp;gt;&amp;gt;" style="edgeLabel;html=1;align=center;verticalAlign=middle;resizable=0;points=[];" vertex="1" connectable="0" parent="ZY_zcs3au3pnWTy_b17c-40">
          <mxGeometry x="0.1253" y="2" relative="1" as="geometry">
            <mxPoint x="8" y="-16" as="offset" />
          </mxGeometry>
        </mxCell>
        <mxCell id="ZY_zcs3au3pnWTy_b17c-45" style="edgeStyle=orthogonalEdgeStyle;rounded=0;orthogonalLoop=1;jettySize=auto;html=1;exitX=1;exitY=1;exitDx=0;exitDy=0;entryX=0;entryY=0;entryDx=0;entryDy=0;" edge="1" parent="1" source="ZY_zcs3au3pnWTy_b17c-22" target="ZY_zcs3au3pnWTy_b17c-43">
          <mxGeometry relative="1" as="geometry" />
        </mxCell>
        <mxCell id="ZY_zcs3au3pnWTy_b17c-46" value="&amp;lt;&amp;lt; Extends &amp;gt;&amp;gt;" style="edgeLabel;html=1;align=center;verticalAlign=middle;resizable=0;points=[];" vertex="1" connectable="0" parent="ZY_zcs3au3pnWTy_b17c-45">
          <mxGeometry x="-0.1808" relative="1" as="geometry">
            <mxPoint x="15" y="-61" as="offset" />
          </mxGeometry>
        </mxCell>
        <mxCell id="ZY_zcs3au3pnWTy_b17c-22" value="Faire évoluer le plateau de jeu" style="ellipse;whiteSpace=wrap;html=1;" vertex="1" parent="1">
          <mxGeometry x="630" y="170" width="100" height="80" as="geometry" />
        </mxCell>
        <mxCell id="ZY_zcs3au3pnWTy_b17c-26" style="edgeStyle=orthogonalEdgeStyle;rounded=0;orthogonalLoop=1;jettySize=auto;html=1;entryX=1;entryY=0;entryDx=0;entryDy=0;startArrow=none;startFill=0;exitX=0;exitY=1;exitDx=0;exitDy=0;" edge="1" parent="1" source="ZY_zcs3au3pnWTy_b17c-21" target="ZY_zcs3au3pnWTy_b17c-18">
          <mxGeometry relative="1" as="geometry">
            <mxPoint x="514" y="300" as="sourcePoint" />
            <mxPoint x="414" y="360" as="targetPoint" />
            <Array as="points">
              <mxPoint x="455" y="295" />
              <mxPoint x="420" y="295" />
              <mxPoint x="420" y="361" />
            </Array>
          </mxGeometry>
        </mxCell>
        <mxCell id="ZY_zcs3au3pnWTy_b17c-27" value="&amp;lt;&amp;lt; Uses &amp;gt;&amp;gt;" style="edgeLabel;html=1;align=center;verticalAlign=middle;resizable=0;points=[];" vertex="1" connectable="0" parent="ZY_zcs3au3pnWTy_b17c-26">
          <mxGeometry x="-0.075" y="-3" relative="1" as="geometry">
            <mxPoint y="-7" as="offset" />
          </mxGeometry>
        </mxCell>
        <mxCell id="ZY_zcs3au3pnWTy_b17c-37" value="Afficher le plateau de jeu" style="ellipse;whiteSpace=wrap;html=1;" vertex="1" parent="1">
          <mxGeometry x="570" y="470" width="100" height="80" as="geometry" />
        </mxCell>
        <mxCell id="ZY_zcs3au3pnWTy_b17c-43" value="Bouger un robot" style="ellipse;whiteSpace=wrap;html=1;" vertex="1" parent="1">
          <mxGeometry x="740" y="410" width="100" height="80" as="geometry" />
        </mxCell>
      </root>
    </mxGraphModel>
  </diagram>
</mxfile>
